<svg width="37" height="37" viewBox="0 0 37 37" fill="none" xmlns="http://www.w3.org/2000/svg">
<path d="M18.5 0C8.30537 0 0 8.30537 0 18.5C0 28.7014 8.30537 37 18.5 37C28.7014 37 37 28.7014 37 18.5C37 8.30537 28.7014 0 18.5 0ZM17.1786 28.2189V28.0868C17.1786 27.3535 17.7732 26.7653 18.5 26.7653C19.2333 26.7653 19.8214 27.3535 19.8214 28.0868V28.2189C19.8214 28.9457 19.2333 29.5403 18.5 29.5403C17.7732 29.5403 17.1786 28.9457 17.1786 28.2189ZM19.8214 21.4534V24.1425C19.8214 24.8693 19.2333 25.4639 18.5 25.4639C17.7732 25.4639 17.1786 24.8693 17.1786 24.1425V20.2576C17.1786 19.5243 17.7732 18.9361 18.5 18.9361C20.9381 18.9361 22.9135 16.954 22.9135 14.5227C22.9135 12.091 20.9381 10.1089 18.5 10.1089C16.0686 10.1089 14.093 12.091 14.093 14.5223C14.093 15.2556 13.4984 15.8438 12.7716 15.8438C12.0383 15.8438 11.4501 15.2556 11.4501 14.5223C11.4501 10.6306 14.6151 7.466 18.5 7.466C22.3917 7.466 25.5564 10.6309 25.5564 14.5223C25.5564 17.9649 23.0854 20.8321 19.8214 21.4534V21.4534Z" fill="#27AEF9"/>
</svg>
