<svg width="36" height="37" viewBox="0 0 36 37" fill="none" xmlns="http://www.w3.org/2000/svg">
<path d="M19.1349 36.9999V36.0601C19.1349 35.7894 19.3157 35.5623 19.5705 35.4712C19.718 35.4181 19.8618 35.3589 20.0021 35.2931C20.247 35.1777 20.5353 35.2105 20.7273 35.4021L21.3919 36.0661L23.1376 34.3221L22.4729 33.6581C22.2817 33.467 22.2484 33.1782 22.3638 32.9335C22.4299 32.7937 22.4897 32.6491 22.5421 32.5024C22.6341 32.2472 22.8612 32.0666 23.1321 32.0666H24.0728V29.5999H23.1321C22.8612 29.5999 22.6339 29.4193 22.5426 29.1647C22.4895 29.0174 22.4302 28.8737 22.3644 28.7336C22.2489 28.4888 22.2817 28.2009 22.4735 28.009L23.1381 27.345L21.3925 25.601L20.7279 26.265C20.5366 26.4561 20.2476 26.4894 20.0026 26.374C19.8626 26.308 19.718 26.2482 19.5711 26.1959C19.3157 26.104 19.1349 25.8771 19.1349 25.6065V24.6666H16.6659V25.6065C16.6659 25.8771 16.4852 26.1042 16.2303 26.1954C16.0829 26.2485 15.939 26.3077 15.7988 26.3735C15.5538 26.4888 15.2656 26.4561 15.0735 26.2645L14.4089 25.6004L12.6633 27.3444L13.3279 28.0085C13.5191 28.1995 13.5525 28.4883 13.437 28.733C13.3709 28.8729 13.3111 29.0174 13.2587 29.1641C13.1667 29.4193 12.9396 29.5999 12.6688 29.5999H11.728V32.0666H12.6688C12.9396 32.0666 13.167 32.2472 13.2582 32.5019C13.3114 32.6491 13.3706 32.7929 13.4365 32.933C13.5519 33.1777 13.5191 33.4657 13.3273 33.6575L12.6627 34.3216L14.4083 36.0656L15.073 35.4016C15.2642 35.2105 15.5533 35.1772 15.7982 35.2925C15.9382 35.3586 16.0829 35.4183 16.2297 35.4706C16.4852 35.5626 16.6659 35.7894 16.6659 36.0601V36.9999H19.1349ZM15.4314 30.8333C15.4314 29.4711 16.537 28.3666 17.9004 28.3666C19.2638 28.3666 20.3694 29.4711 20.3694 30.8333C20.3694 32.1954 19.2638 33.2999 17.9004 33.2999C16.537 33.2999 15.4314 32.1954 15.4314 30.8333Z" fill="#27AEF9"/>
<path d="M1.53016 4.49807C1.43867 4.75272 1.21162 4.93332 0.940746 4.93332H0V7.39999H0.940746C1.21161 7.39999 1.43895 7.58058 1.53016 7.83524C1.58334 7.98252 1.64259 8.12623 1.70844 8.26635C1.82389 8.5111 1.79111 8.79906 1.59932 8.99092L0.934679 9.65494L2.68031 11.3989L3.34494 10.7349C3.53618 10.5439 3.82523 10.5106 4.07018 10.6259C4.21017 10.692 4.35483 10.7517 4.5017 10.804C4.75714 10.896 4.9379 11.1228 4.9379 11.3934V12.3333H7.40687V11.3934C7.40687 11.1228 7.58763 10.8957 7.84252 10.8046C7.98994 10.7514 8.13378 10.6922 8.27404 10.6265C8.51901 10.5111 8.80723 10.5439 8.99928 10.7355L9.66391 11.3995L11.4095 9.65549L10.7449 8.99147C10.5537 8.80042 10.5203 8.51162 10.6358 8.2669C10.7019 8.12705 10.7617 7.98252 10.8141 7.83578C10.9061 7.58058 11.1332 7.39999 11.404 7.39999H12.3448V4.93332H11.404C11.1332 4.93332 10.9058 4.75272 10.8146 4.49807C10.7614 4.35079 10.7022 4.20708 10.6363 4.06695C10.5209 3.82221 10.5537 3.53425 10.7455 3.34239L11.4101 2.67837L9.66447 0.93436L8.99928 1.59838C8.80805 1.78943 8.51899 1.82275 8.27404 1.7074C8.13405 1.64133 7.98939 1.58159 7.84252 1.52929C7.58763 1.43734 7.40687 1.21049 7.40687 0.939872V0H4.9379V0.939872C4.9379 1.21049 4.75714 1.43761 4.50225 1.52874C4.35483 1.58187 4.21099 1.64106 4.07073 1.70685C3.82576 1.82275 3.53726 1.78944 3.34549 1.59838L2.68058 0.93436L0.935236 2.67808L1.59987 3.34238C1.79111 3.53343 1.82445 3.82222 1.70899 4.06695C1.64259 4.20762 1.58335 4.35105 1.53016 4.49806V4.49807ZM6.17244 3.7C7.53587 3.7 8.6414 4.8045 8.6414 6.16667C8.6414 7.52883 7.53587 8.63334 6.17244 8.63334C4.80901 8.63334 3.70348 7.52883 3.70348 6.16667C3.70348 4.8045 4.80901 3.7 6.17244 3.7Z" fill="#27AEF9"/>
<path d="M25.0549 3.34239C25.2462 3.53344 25.2795 3.82223 25.1641 4.06695C25.0979 4.20681 25.0381 4.35134 24.9858 4.49807C24.8937 4.75272 24.6667 4.93332 24.3958 4.93332H23.4551V7.39999H24.3958C24.6667 7.39999 24.894 7.58058 24.9852 7.83524C25.0384 7.98252 25.0977 8.12623 25.1635 8.26635C25.279 8.5111 25.2462 8.79906 25.0544 8.99092L24.3898 9.65494L26.1354 11.3989L26.8 10.7349C26.9913 10.5439 27.2803 10.5106 27.5253 10.6259C27.6652 10.692 27.8099 10.7517 27.9568 10.804C28.2122 10.896 28.393 11.1228 28.393 11.3934V12.3333H30.8619V11.3934C30.8619 11.1228 31.0427 10.8957 31.2976 10.8046C31.445 10.7514 31.5889 10.6922 31.7291 10.6265C31.9741 10.5111 32.2623 10.5439 32.4544 10.7355L33.119 11.3995L34.8646 9.65549L34.2 8.99147C34.0087 8.80042 33.9754 8.51162 34.0909 8.2669C34.157 8.12705 34.2168 7.98252 34.2691 7.83578C34.3612 7.58058 34.5882 7.39999 34.8591 7.39999H35.7998V4.93332H34.8591C34.5882 4.93332 34.3609 4.75272 34.2697 4.49807C34.2165 4.35079 34.1573 4.20708 34.0914 4.06695C33.976 3.82221 34.0087 3.53425 34.2005 3.34239L34.8652 2.67837L33.1195 0.93436L32.4544 1.59838C32.2631 1.78944 31.9741 1.82275 31.7291 1.7074C31.5891 1.64133 31.4445 1.58159 31.2976 1.52929C31.0427 1.43734 30.8619 1.21049 30.8619 0.939872V0H28.393V0.939872C28.393 1.21049 28.2122 1.43761 27.9573 1.52874C27.8099 1.58187 27.6661 1.64106 27.5258 1.70685C27.2808 1.8222 26.9926 1.78944 26.8006 1.59783L26.1359 0.933811L24.3903 2.67782L25.0549 3.34239ZM29.6275 3.7C30.9909 3.7 32.0964 4.8045 32.0964 6.16667C32.0964 7.52883 30.9909 8.63334 29.6275 8.63334C28.264 8.63334 27.1585 7.52883 27.1585 6.16667C27.1585 4.8045 28.264 3.7 29.6275 3.7Z" fill="#27AEF9"/>
<path d="M30.2446 17.2667V19.1167H27.8693C27.03 19.1167 26.2347 18.6985 25.7955 17.9838C24.1673 15.3341 21.2404 13.5667 17.8998 13.5667C14.5592 13.5667 11.6323 15.3341 10.004 17.9838C9.56453 18.6985 8.76956 19.1167 7.93025 19.1167H0.617188V22.8167H8.57571C10.3916 22.8167 12.1293 21.8757 12.965 20.2655C13.8895 18.4841 15.7523 17.2667 17.8996 17.2667C20.047 17.2667 21.9098 18.484 22.8345 20.2655C23.6703 21.8757 25.4077 22.8167 27.2236 22.8167H30.2445V24.6667L35.1824 20.9667L30.2446 17.2667Z" fill="#27AEF9"/>
<path d="M14.814 5.55005H16.0484V6.78338H14.814V5.55005Z" fill="#27AEF9"/>
<path d="M17.2827 5.55005H18.5172V6.78338H17.2827V5.55005Z" fill="#27AEF9"/>
<path d="M19.752 5.55005H20.9864V6.78338H19.752V5.55005Z" fill="#27AEF9"/>
<path d="M3.70361 30.2167H4.93809V31.45H3.70361V30.2167Z" fill="#27AEF9"/>
<path d="M6.17236 30.2167H7.40684V31.45H6.17236V30.2167Z" fill="#27AEF9"/>
<path d="M8.64111 30.2167H9.87559V31.45H8.64111V30.2167Z" fill="#27AEF9"/>
<path d="M1.23486 30.2167H2.46934V31.45H1.23486V30.2167Z" fill="#27AEF9"/>
<path d="M25.9243 30.2167H27.1588V31.45H25.9243V30.2167Z" fill="#27AEF9"/>
<path d="M28.3931 30.2167H29.6275V31.45H28.3931V30.2167Z" fill="#27AEF9"/>
<path d="M30.8623 30.2167H32.0968V31.45H30.8623V30.2167Z" fill="#27AEF9"/>
<path d="M33.3311 30.2167H34.5655V31.45H33.3311V30.2167Z" fill="#27AEF9"/>
</svg>
